<?xml version="1.0" encoding="utf-8"?>
<!-- Generator: Adobe Illustrator 23.1.0, SVG Export Plug-In . SVG Version: 6.00 Build 0)  -->
<svg version="1.1" xmlns="http://www.w3.org/2000/svg" xmlns:xlink="http://www.w3.org/1999/xlink" x="0px" y="0px"
	 viewBox="0 0 841.89 595.28" style="enable-background:new 0 0 841.89 595.28;" xml:space="preserve">
<style type="text/css">
	.st0{display:none;}
	.st1{display:inline;fill:url(#SVGID_1_);}
	.st2{display:inline;}
	.st3{fill:none;stroke:#E6E6E6;stroke-width:0.5;}
	.st4{fill:none;stroke:#F2F2F3;stroke-width:0.5;}
	.st5{display:inline;fill:none;stroke:#E6E6E6;stroke-width:0.5;}
	.st6{display:inline;fill:none;stroke:#F2F2F3;stroke-width:0.5;}
	.st7{fill:none;}
	.st8{font-family:'ArialMT';}
	.st9{font-size:10px;}
	.st10{font-family:'DFLiHei-Md-WIN-BF';}
	.st11{fill:#3E3A39;}
</style>
<g id="圖層_1" class="st0">
	<radialGradient id="SVGID_1_" cx="416.945" cy="216.638" r="364.5424" gradientUnits="userSpaceOnUse">
		<stop  offset="0" style="stop-color:#FFFFFF"/>
		<stop  offset="0.3373" style="stop-color:#FBFBFB"/>
		<stop  offset="0.6769" style="stop-color:#EFEFEF"/>
		<stop  offset="1" style="stop-color:#DCDDDD"/>
	</radialGradient>
	<rect x="0" class="st1" width="841.89" height="595.27"/>
	<g class="st2">
		<line class="st3" x1="17.01" y1="14.17" x2="824.88" y2="14.17"/>
		<line class="st3" x1="17.01" y1="28.35" x2="824.88" y2="28.35"/>
		<line class="st3" x1="17.01" y1="42.52" x2="824.88" y2="42.52"/>
		<line class="st3" x1="17.01" y1="56.69" x2="824.88" y2="56.69"/>
		<line class="st3" x1="17.01" y1="70.87" x2="824.88" y2="70.87"/>
		<line class="st3" x1="17.01" y1="85.04" x2="824.88" y2="85.04"/>
		<line class="st3" x1="17.01" y1="99.21" x2="824.88" y2="99.21"/>
		<line class="st3" x1="17.01" y1="113.39" x2="824.88" y2="113.39"/>
		<line class="st3" x1="17.01" y1="127.56" x2="824.88" y2="127.56"/>
		<line class="st3" x1="17.01" y1="141.73" x2="824.88" y2="141.73"/>
		<line class="st3" x1="17.01" y1="155.91" x2="824.88" y2="155.91"/>
		<line class="st3" x1="17.01" y1="170.08" x2="824.88" y2="170.08"/>
		<line class="st3" x1="17.01" y1="184.25" x2="824.88" y2="184.25"/>
		<line class="st3" x1="17.01" y1="198.43" x2="824.88" y2="198.43"/>
		<line class="st3" x1="17.01" y1="212.6" x2="824.88" y2="212.6"/>
		<line class="st3" x1="17.01" y1="226.77" x2="824.88" y2="226.77"/>
		<line class="st3" x1="17.01" y1="240.95" x2="824.88" y2="240.95"/>
		<line class="st3" x1="17.01" y1="255.12" x2="824.88" y2="255.12"/>
		<line class="st3" x1="17.01" y1="269.29" x2="824.88" y2="269.29"/>
		<line class="st3" x1="17.01" y1="283.47" x2="824.88" y2="283.47"/>
		<line class="st3" x1="17.01" y1="297.64" x2="824.88" y2="297.64"/>
		<line class="st3" x1="17.01" y1="311.81" x2="824.88" y2="311.81"/>
		<line class="st3" x1="17.01" y1="325.99" x2="824.88" y2="325.99"/>
		<line class="st3" x1="17.01" y1="340.16" x2="824.88" y2="340.16"/>
		<line class="st3" x1="17.01" y1="354.33" x2="824.88" y2="354.33"/>
		<line class="st3" x1="17.01" y1="368.5" x2="824.88" y2="368.5"/>
		<line class="st3" x1="17.01" y1="382.68" x2="824.88" y2="382.68"/>
		<line class="st3" x1="17.01" y1="396.85" x2="824.88" y2="396.85"/>
		<line class="st3" x1="17.01" y1="411.02" x2="824.88" y2="411.02"/>
		<line class="st3" x1="17.01" y1="425.2" x2="824.88" y2="425.2"/>
		<line class="st3" x1="17.01" y1="439.37" x2="824.88" y2="439.37"/>
		<line class="st3" x1="17.01" y1="453.54" x2="824.88" y2="453.54"/>
		<line class="st3" x1="17.01" y1="467.71" x2="824.88" y2="467.71"/>
		<line class="st3" x1="17.01" y1="481.89" x2="824.88" y2="481.89"/>
		<line class="st3" x1="17.01" y1="496.06" x2="824.88" y2="496.06"/>
		<line class="st3" x1="17.01" y1="510.23" x2="824.88" y2="510.23"/>
		<line class="st3" x1="17.01" y1="524.41" x2="824.88" y2="524.41"/>
		<line class="st3" x1="17.01" y1="538.58" x2="824.88" y2="538.58"/>
	</g>
	<g class="st2">
		<line class="st4" x1="24.09" y1="552.75" x2="24.09" y2="14.17"/>
		<line class="st4" x1="38.27" y1="552.75" x2="38.27" y2="14.17"/>
		<line class="st4" x1="52.44" y1="552.75" x2="52.44" y2="14.17"/>
		<line class="st4" x1="66.61" y1="552.75" x2="66.61" y2="14.17"/>
		<line class="st4" x1="80.79" y1="552.75" x2="80.79" y2="14.17"/>
		<line class="st4" x1="94.96" y1="552.75" x2="94.96" y2="14.17"/>
		<line class="st4" x1="109.13" y1="552.75" x2="109.13" y2="14.17"/>
		<line class="st4" x1="123.31" y1="552.75" x2="123.31" y2="14.17"/>
		<line class="st4" x1="137.48" y1="552.75" x2="137.48" y2="14.17"/>
		<line class="st4" x1="151.65" y1="552.75" x2="151.65" y2="14.17"/>
		<line class="st4" x1="165.83" y1="552.75" x2="165.83" y2="14.17"/>
		<line class="st4" x1="180" y1="552.75" x2="180" y2="14.17"/>
		<line class="st4" x1="194.17" y1="552.75" x2="194.17" y2="14.17"/>
		<line class="st4" x1="208.35" y1="552.75" x2="208.35" y2="14.17"/>
		<line class="st4" x1="222.52" y1="552.75" x2="222.52" y2="14.17"/>
		<line class="st4" x1="236.69" y1="552.75" x2="236.69" y2="14.17"/>
		<line class="st4" x1="250.87" y1="552.75" x2="250.87" y2="14.17"/>
		<line class="st4" x1="265.04" y1="552.75" x2="265.04" y2="14.17"/>
		<line class="st4" x1="279.21" y1="552.75" x2="279.21" y2="14.17"/>
		<line class="st4" x1="293.39" y1="552.75" x2="293.39" y2="14.17"/>
		<line class="st4" x1="307.56" y1="552.75" x2="307.56" y2="14.17"/>
		<line class="st4" x1="321.73" y1="552.75" x2="321.73" y2="14.17"/>
		<line class="st4" x1="335.91" y1="552.75" x2="335.91" y2="14.17"/>
		<line class="st4" x1="350.08" y1="552.75" x2="350.08" y2="14.17"/>
		<line class="st4" x1="364.25" y1="552.75" x2="364.25" y2="14.17"/>
		<line class="st4" x1="378.43" y1="552.75" x2="378.43" y2="14.17"/>
		<line class="st4" x1="392.6" y1="552.75" x2="392.6" y2="14.17"/>
		<line class="st4" x1="406.77" y1="552.75" x2="406.77" y2="14.17"/>
		<line class="st4" x1="420.94" y1="552.75" x2="420.94" y2="14.17"/>
		<line class="st4" x1="435.12" y1="552.75" x2="435.12" y2="14.17"/>
		<line class="st4" x1="449.29" y1="552.75" x2="449.29" y2="14.17"/>
		<line class="st4" x1="463.46" y1="552.75" x2="463.46" y2="14.17"/>
		<line class="st4" x1="477.64" y1="552.75" x2="477.64" y2="14.17"/>
		<line class="st4" x1="491.81" y1="552.75" x2="491.81" y2="14.17"/>
		<line class="st4" x1="505.98" y1="552.75" x2="505.98" y2="14.17"/>
		<line class="st4" x1="520.15" y1="552.75" x2="520.15" y2="14.17"/>
		<line class="st4" x1="534.33" y1="552.75" x2="534.33" y2="14.17"/>
		<line class="st4" x1="548.5" y1="552.75" x2="548.5" y2="14.17"/>
	</g>
	<g class="st2">
		<line class="st3" x1="24.09" y1="549.21" x2="24.09" y2="10.63"/>
		<line class="st3" x1="38.27" y1="549.21" x2="38.27" y2="10.63"/>
		<line class="st3" x1="52.44" y1="549.21" x2="52.44" y2="10.63"/>
		<line class="st3" x1="66.61" y1="549.21" x2="66.61" y2="10.63"/>
		<line class="st3" x1="80.79" y1="549.21" x2="80.79" y2="10.63"/>
		<line class="st3" x1="94.96" y1="549.21" x2="94.96" y2="10.63"/>
		<line class="st3" x1="109.13" y1="549.21" x2="109.13" y2="10.63"/>
		<line class="st3" x1="123.31" y1="549.21" x2="123.31" y2="10.63"/>
		<line class="st3" x1="137.48" y1="549.21" x2="137.48" y2="10.63"/>
		<line class="st3" x1="151.65" y1="549.21" x2="151.65" y2="10.63"/>
		<line class="st3" x1="165.83" y1="549.21" x2="165.83" y2="10.63"/>
		<line class="st3" x1="180" y1="549.21" x2="180" y2="10.63"/>
		<line class="st3" x1="194.17" y1="549.21" x2="194.17" y2="10.63"/>
		<line class="st3" x1="208.35" y1="549.21" x2="208.35" y2="10.63"/>
		<line class="st3" x1="222.52" y1="549.21" x2="222.52" y2="10.63"/>
		<line class="st3" x1="236.69" y1="549.21" x2="236.69" y2="10.63"/>
		<line class="st3" x1="250.87" y1="549.21" x2="250.87" y2="10.63"/>
		<line class="st3" x1="265.04" y1="549.21" x2="265.04" y2="10.63"/>
		<line class="st3" x1="279.21" y1="549.21" x2="279.21" y2="10.63"/>
		<line class="st3" x1="293.39" y1="549.21" x2="293.39" y2="10.63"/>
		<line class="st3" x1="307.56" y1="549.21" x2="307.56" y2="10.63"/>
		<line class="st3" x1="321.73" y1="549.21" x2="321.73" y2="10.63"/>
		<line class="st3" x1="335.91" y1="549.21" x2="335.91" y2="10.63"/>
		<line class="st3" x1="350.08" y1="549.21" x2="350.08" y2="10.63"/>
		<line class="st3" x1="364.25" y1="549.21" x2="364.25" y2="10.63"/>
		<line class="st3" x1="378.42" y1="549.21" x2="378.42" y2="10.63"/>
		<line class="st3" x1="392.6" y1="549.21" x2="392.6" y2="10.63"/>
		<line class="st3" x1="406.77" y1="549.21" x2="406.77" y2="10.63"/>
		<line class="st3" x1="420.94" y1="549.21" x2="420.94" y2="10.63"/>
		<line class="st3" x1="435.12" y1="549.21" x2="435.12" y2="10.63"/>
		<line class="st3" x1="449.29" y1="549.21" x2="449.29" y2="10.63"/>
		<line class="st3" x1="463.46" y1="549.21" x2="463.46" y2="10.63"/>
		<line class="st3" x1="477.64" y1="549.21" x2="477.64" y2="10.63"/>
		<line class="st3" x1="491.81" y1="549.21" x2="491.81" y2="10.63"/>
		<line class="st3" x1="505.98" y1="549.21" x2="505.98" y2="10.63"/>
		<line class="st3" x1="520.15" y1="549.21" x2="520.15" y2="10.63"/>
		<line class="st3" x1="534.33" y1="549.21" x2="534.33" y2="10.63"/>
		<line class="st3" x1="548.5" y1="549.21" x2="548.5" y2="10.63"/>
	</g>
	<line class="st5" x1="562.68" y1="549.21" x2="562.68" y2="10.63"/>
	<line class="st5" x1="576.85" y1="549.21" x2="576.85" y2="10.63"/>
	<line class="st5" x1="591.02" y1="549.21" x2="591.02" y2="10.63"/>
	<line class="st5" x1="605.2" y1="549.21" x2="605.2" y2="10.63"/>
	<line class="st5" x1="619.37" y1="549.21" x2="619.37" y2="10.63"/>
	<line class="st5" x1="633.54" y1="549.21" x2="633.54" y2="10.63"/>
	<line class="st5" x1="647.72" y1="549.21" x2="647.72" y2="10.63"/>
	<line class="st5" x1="661.89" y1="549.21" x2="661.89" y2="10.63"/>
	<line class="st5" x1="676.06" y1="549.21" x2="676.06" y2="10.63"/>
	<line class="st5" x1="690.24" y1="549.21" x2="690.24" y2="10.63"/>
	<line class="st5" x1="704.41" y1="549.21" x2="704.41" y2="10.63"/>
	<line class="st5" x1="718.58" y1="549.21" x2="718.58" y2="10.63"/>
	<line class="st5" x1="732.76" y1="549.21" x2="732.76" y2="10.63"/>
	<line class="st5" x1="746.93" y1="549.21" x2="746.93" y2="10.63"/>
	<line class="st5" x1="761.1" y1="549.21" x2="761.1" y2="10.63"/>
	<line class="st5" x1="775.28" y1="549.21" x2="775.28" y2="10.63"/>
	<line class="st5" x1="789.45" y1="549.21" x2="789.45" y2="10.63"/>
	<line class="st5" x1="803.62" y1="549.21" x2="803.62" y2="10.63"/>
	<line class="st5" x1="817.8" y1="549.21" x2="817.8" y2="10.63"/>
	<g class="st2">
		<line class="st4" x1="31.18" y1="549.21" x2="31.18" y2="10.63"/>
		<line class="st4" x1="45.35" y1="549.21" x2="45.35" y2="10.63"/>
		<line class="st4" x1="59.53" y1="549.21" x2="59.53" y2="10.63"/>
		<line class="st4" x1="73.7" y1="549.21" x2="73.7" y2="10.63"/>
		<line class="st4" x1="87.87" y1="549.21" x2="87.87" y2="10.63"/>
		<line class="st4" x1="102.05" y1="549.21" x2="102.05" y2="10.63"/>
		<line class="st4" x1="116.22" y1="549.21" x2="116.22" y2="10.63"/>
		<line class="st4" x1="130.39" y1="549.21" x2="130.39" y2="10.63"/>
		<line class="st4" x1="144.57" y1="549.21" x2="144.57" y2="10.63"/>
		<line class="st4" x1="158.74" y1="549.21" x2="158.74" y2="10.63"/>
		<line class="st4" x1="172.91" y1="549.21" x2="172.91" y2="10.63"/>
		<line class="st4" x1="187.09" y1="549.21" x2="187.09" y2="10.63"/>
		<line class="st4" x1="201.26" y1="549.21" x2="201.26" y2="10.63"/>
		<line class="st4" x1="215.43" y1="549.21" x2="215.43" y2="10.63"/>
		<line class="st4" x1="229.61" y1="549.21" x2="229.61" y2="10.63"/>
		<line class="st4" x1="243.78" y1="549.21" x2="243.78" y2="10.63"/>
		<line class="st4" x1="257.95" y1="549.21" x2="257.95" y2="10.63"/>
		<line class="st4" x1="272.13" y1="549.21" x2="272.13" y2="10.63"/>
		<line class="st4" x1="286.3" y1="549.21" x2="286.3" y2="10.63"/>
		<line class="st4" x1="300.47" y1="549.21" x2="300.47" y2="10.63"/>
		<line class="st4" x1="314.65" y1="549.21" x2="314.65" y2="10.63"/>
		<line class="st4" x1="328.82" y1="549.21" x2="328.82" y2="10.63"/>
		<line class="st4" x1="342.99" y1="549.21" x2="342.99" y2="10.63"/>
		<line class="st4" x1="357.17" y1="549.21" x2="357.17" y2="10.63"/>
		<line class="st4" x1="371.34" y1="549.21" x2="371.34" y2="10.63"/>
		<line class="st4" x1="385.51" y1="549.21" x2="385.51" y2="10.63"/>
		<line class="st4" x1="399.68" y1="549.21" x2="399.68" y2="10.63"/>
		<line class="st4" x1="413.86" y1="549.21" x2="413.86" y2="10.63"/>
		<line class="st4" x1="428.03" y1="549.21" x2="428.03" y2="10.63"/>
		<line class="st4" x1="442.21" y1="549.21" x2="442.21" y2="10.63"/>
		<line class="st4" x1="456.38" y1="549.21" x2="456.38" y2="10.63"/>
		<line class="st4" x1="470.55" y1="549.21" x2="470.55" y2="10.63"/>
		<line class="st4" x1="484.72" y1="549.21" x2="484.72" y2="10.63"/>
		<line class="st4" x1="498.9" y1="549.21" x2="498.9" y2="10.63"/>
		<line class="st4" x1="513.07" y1="549.21" x2="513.07" y2="10.63"/>
		<line class="st4" x1="527.24" y1="549.21" x2="527.24" y2="10.63"/>
		<line class="st4" x1="541.41" y1="549.21" x2="541.41" y2="10.63"/>
		<line class="st4" x1="555.59" y1="549.21" x2="555.59" y2="10.63"/>
	</g>
	<g class="st2">
		<line class="st4" x1="824.88" y1="545.67" x2="17.01" y2="545.67"/>
		<line class="st4" x1="824.88" y1="531.5" x2="17.01" y2="531.5"/>
		<line class="st4" x1="824.88" y1="517.32" x2="17.01" y2="517.32"/>
		<line class="st4" x1="824.88" y1="503.15" x2="17.01" y2="503.15"/>
		<line class="st4" x1="824.88" y1="488.98" x2="17.01" y2="488.98"/>
		<line class="st4" x1="824.88" y1="474.8" x2="17.01" y2="474.8"/>
		<line class="st4" x1="824.88" y1="460.63" x2="17.01" y2="460.63"/>
		<line class="st4" x1="824.88" y1="446.46" x2="17.01" y2="446.46"/>
		<line class="st4" x1="824.88" y1="432.28" x2="17.01" y2="432.28"/>
		<line class="st4" x1="824.88" y1="418.11" x2="17.01" y2="418.11"/>
		<line class="st4" x1="824.88" y1="403.93" x2="17.01" y2="403.93"/>
		<line class="st4" x1="824.88" y1="389.76" x2="17.01" y2="389.76"/>
		<line class="st4" x1="824.88" y1="375.59" x2="17.01" y2="375.59"/>
		<line class="st4" x1="824.88" y1="361.41" x2="17.01" y2="361.41"/>
		<line class="st4" x1="824.88" y1="347.24" x2="17.01" y2="347.24"/>
		<line class="st4" x1="824.88" y1="333.07" x2="17.01" y2="333.07"/>
		<line class="st4" x1="824.88" y1="318.9" x2="17.01" y2="318.9"/>
		<line class="st4" x1="824.88" y1="304.72" x2="17.01" y2="304.72"/>
		<line class="st4" x1="824.88" y1="290.55" x2="17.01" y2="290.55"/>
		<line class="st4" x1="824.88" y1="276.37" x2="17.01" y2="276.37"/>
		<line class="st4" x1="824.88" y1="262.2" x2="17.01" y2="262.2"/>
		<line class="st4" x1="824.88" y1="248.03" x2="17.01" y2="248.03"/>
		<line class="st4" x1="824.88" y1="233.85" x2="17.01" y2="233.85"/>
		<line class="st4" x1="824.88" y1="219.68" x2="17.01" y2="219.68"/>
		<line class="st4" x1="824.88" y1="205.51" x2="17.01" y2="205.51"/>
		<line class="st4" x1="824.88" y1="191.34" x2="17.01" y2="191.34"/>
		<line class="st4" x1="824.88" y1="177.16" x2="17.01" y2="177.16"/>
		<line class="st4" x1="824.88" y1="162.99" x2="17.01" y2="162.99"/>
		<line class="st4" x1="824.88" y1="148.82" x2="17.01" y2="148.82"/>
		<line class="st4" x1="824.88" y1="134.64" x2="17.01" y2="134.64"/>
		<line class="st4" x1="824.88" y1="120.47" x2="17.01" y2="120.47"/>
		<line class="st4" x1="824.88" y1="106.3" x2="17.01" y2="106.3"/>
		<line class="st4" x1="824.88" y1="92.13" x2="17.01" y2="92.13"/>
		<line class="st4" x1="824.88" y1="77.95" x2="17.01" y2="77.95"/>
		<line class="st4" x1="824.88" y1="63.78" x2="17.01" y2="63.78"/>
		<line class="st4" x1="824.88" y1="49.61" x2="17.01" y2="49.61"/>
		<line class="st4" x1="824.88" y1="35.43" x2="17.01" y2="35.43"/>
		<line class="st4" x1="824.88" y1="21.26" x2="17.01" y2="21.26"/>
	</g>
	<line class="st6" x1="569.76" y1="549.21" x2="569.76" y2="10.63"/>
	<line class="st6" x1="583.94" y1="549.21" x2="583.94" y2="10.63"/>
	<line class="st6" x1="598.11" y1="549.21" x2="598.11" y2="10.63"/>
	<line class="st6" x1="612.28" y1="549.21" x2="612.28" y2="10.63"/>
	<line class="st6" x1="626.46" y1="549.21" x2="626.46" y2="10.63"/>
	<line class="st6" x1="640.63" y1="549.21" x2="640.63" y2="10.63"/>
	<line class="st6" x1="654.8" y1="549.21" x2="654.8" y2="10.63"/>
	<line class="st6" x1="668.98" y1="549.21" x2="668.98" y2="10.63"/>
	<line class="st6" x1="683.15" y1="549.21" x2="683.15" y2="10.63"/>
	<line class="st6" x1="697.32" y1="549.21" x2="697.32" y2="10.63"/>
	<line class="st6" x1="711.5" y1="549.21" x2="711.5" y2="10.63"/>
	<line class="st6" x1="725.67" y1="549.21" x2="725.67" y2="10.63"/>
	<line class="st6" x1="739.84" y1="549.21" x2="739.84" y2="10.63"/>
	<line class="st6" x1="754.02" y1="549.21" x2="754.02" y2="10.63"/>
	<line class="st6" x1="768.19" y1="549.21" x2="768.19" y2="10.63"/>
	<line class="st6" x1="782.36" y1="549.21" x2="782.36" y2="10.63"/>
	<line class="st6" x1="796.54" y1="549.21" x2="796.54" y2="10.63"/>
	<line class="st6" x1="810.71" y1="549.21" x2="810.71" y2="10.63"/>
	<line class="st6" x1="839.06" y1="549.21" x2="839.06" y2="10.63"/>
	<rect y="561.26" class="st2" width="841.89" height="34.02"/>
	<text transform="matrix(1 0 0 1 27 578.9999)" class="st2"><tspan x="0" y="0" class="st7 st8 st9">D</tspan><tspan x="7.22" y="0" class="st7 st10 st9">.標準</tspan><tspan x="32.22" y="0" class="st7 st8 st9">logo</tspan></text>
</g>
<g id="圖層_2">
	<g>
		<g>
			<path d="M537.76,332.71v-5.78h67.5v5.78h-25.54c-2.43,4.86-4.97,9.33-7.6,13.38h3.04v45.61h-8.82v-38.31
				c-6.28,7.3-16.42,15-30.4,23.11v-5.47c16.82-11.75,28.07-24.52,33.75-38.31H537.76z M605.25,374.67
				c-8.31-7.7-16.72-13.88-25.23-18.55v-6.38c10.13,4.46,18.55,9.73,25.23,15.81V374.67z"/>
			<path d="M616.2,334.23v-5.78h19.15c0.81-2.02,1.52-4.26,2.13-6.69h8.51c-0.61,2.43-1.22,4.66-1.82,6.69h39.52v5.78h-41.65
				c-2.84,5.88-6.28,10.75-10.34,14.59v42.57h-7.9v-36.18c-2.84,1.82-6.08,3.65-9.73,5.47v-5.78c8.92-5.27,15.3-12.16,19.15-20.67
				H616.2z M637.48,360.08v-5.47h17.33v-14.59h8.21v14.59h17.03v5.47h-17.03v21.89h20.67v4.86h-49.25v-4.86h20.37v-21.89H637.48z"/>
		</g>
		<g>
			<path d="M165.8,335.15v-5.47h17.33v-8.21h8.21v8.21h16.72v5.47h-16.72v11.25h7.9c5.47-4.66,11.25-10.84,17.33-18.55h9.12
				c-5.47,7.3-10.75,13.48-15.81,18.55h18.55v5.47h-25.24c-6.49,4.86-13.28,8.82-20.37,11.86v6.69c12.97-1.42,22.6-5.57,28.88-12.47
				h9.12c-7.5,10.54-20.17,16.32-38,17.33v3.95c-0.2,3.24,1.52,4.86,5.17,4.86h23.11c3.44,0,5.06-1.42,4.86-4.26v-2.74h6.38v3.65
				c0.2,5.88-3.04,8.71-9.73,8.51h-27.67c-7.1,0.2-10.64-2.94-10.64-9.43v-12.77c-4.86,1.82-10.24,3.55-16.11,5.17v-5.17
				c14.39-4.66,25.64-9.73,33.75-15.2H158.8v-5.47h24.32v-11.25H165.8z"/>
			<g>
				<path d="M239.27,391.39V324.5h28.28v17.94c0.2,6.08-2.84,9.02-9.12,8.82h-11.86v40.13H239.27z M246.57,328.76v6.99h13.38v-6.99
					H246.57z M255.38,346.7c3.04,0,4.56-1.52,4.56-4.56v-2.13h-13.38v6.69H255.38z M286.4,391.39v-5.17h4.26
					c3.24,0.2,4.76-1.22,4.56-4.26v-30.71h-20.98V324.5h28.28v57.77c0.2,6.28-2.84,9.32-9.12,9.12H286.4z M281.84,328.76v6.99h13.38
					v-6.99H281.84z M281.84,340.01v6.69h13.38v-6.69H281.84z"/>
				<g>
					<path d="M249.3,385.54v-15.98h20.19v8.16c0,5.38-3.25,7.99-9.73,7.82H249.3z M256.29,380.99h1.64
						c3.04,0.17,4.46-1.09,4.26-3.79v-3.11h-5.9V380.99z M272.2,385.54v-15.98h20.49v8.16c0.2,5.38-2.94,7.99-9.43,7.82H272.2z
						 M279.19,380.99h4.54c3.24,0.17,2.17-1.09,1.97-3.79v-3.11h-6.51V380.99z"/>
					<path d="M253.39,352.81v14.74h24.56c7.3,0,10.84-2.86,10.64-8.58v-6.16H253.39z M280.69,358.21c0.2,3.37-1.52,4.96-5.17,4.8
						h-14.53v-5.65h19.7V358.21z"/>
				</g>
			</g>
		</g>
		<g>
			<path d="M303.35,276.62l-14.95,0.43l-0.19-6.66c-0.09-3.26,1.06-4.9,3.47-4.92c1.84-0.1,3.05,0.79,3.62,2.66
				c0.41-2.28,1.58-3.47,3.51-3.58c2.83-0.18,4.28,1.58,4.34,5.26L303.35,276.62z M289.61,274.96l5.24-0.15l-0.12-4.04
				c-0.06-2.22-0.99-3.3-2.79-3.25c-1.75,0-2.57,1.16-2.45,3.47L289.61,274.96z M296.16,270.66l0.12,4.11l5.81-0.17l-0.13-4.46
				c-0.02-2.41-1-3.56-2.94-3.46C297.04,266.74,296.08,268.06,296.16,270.66z"/>
			<path d="M303.95,255.55c-0.76,4.62-3.53,6.81-8.3,6.56c-4.96-0.75-7.31-3.51-7.06-8.28c0.75-4.53,3.61-6.71,8.58-6.53
				C302,247.98,304.26,250.73,303.95,255.55z M302.68,255.42c0.27-3.49-1.67-5.49-5.79-6.01c-4.06-0.23-6.38,1.29-6.96,4.56
				c-0.07,3.41,1.89,5.42,5.86,6.02C299.86,260.26,302.15,258.74,302.68,255.42z"/>
			<path d="M302.36,246.01l-1.65-0.4c2.38-1.23,3.87-3.08,4.46-5.57c0.54-2.45-0.04-3.9-1.73-4.35c-1.55-0.42-2.83,0.68-3.85,3.31
				c-1.47,3.73-3.31,5.23-5.52,4.51c-2.45-0.73-3.31-2.83-2.58-6.3c0.79-3.31,2.66-4.93,5.6-4.86l-0.48,2
				c-2.07,0.14-3.37,1.19-3.89,3.15c-0.47,2.17,0.14,3.48,1.83,3.94c1.35,0.47,2.52-0.57,3.51-3.1c1.58-3.75,3.49-5.34,5.73-4.75
				c2.69,0.74,3.62,2.93,2.8,6.57C305.88,242.96,304.46,244.91,302.36,246.01z"/>
			<path d="M305.75,232.24l-1.59-0.59c2.51-0.93,4.21-2.6,5.1-4.99c0.83-2.36,0.43-3.87-1.19-4.53c-1.49-0.6-2.9,0.34-4.22,2.82
				c-1.91,3.52-3.92,4.8-6.03,3.81c-2.34-1.02-2.94-3.21-1.8-6.56c1.18-3.19,3.23-4.57,6.15-4.15l-0.71,1.93
				c-2.07-0.11-3.49,0.77-4.24,2.66c-0.73,2.1-0.28,3.48,1.34,4.13c1.28,0.63,2.57-0.26,3.86-2.65c2.02-3.54,4.1-4.88,6.26-4.03
				c2.58,1.06,3.24,3.35,1.99,6.86C309.61,229.64,307.97,231.4,305.75,232.24z"/>
			<path d="M316.48,213.49l-13.22-7.15l0.98-1.81l13.22,7.15L316.48,213.49z"/>
			<path d="M316.29,208.24l-1.42-0.93c2.66-0.35,4.68-1.6,6.08-3.74c1.33-2.12,1.27-3.68-0.16-4.68c-1.32-0.92-2.9-0.31-4.74,1.82
				c-2.64,3.01-4.88,3.81-6.72,2.39c-2.06-1.51-2.16-3.78-0.3-6.8c1.86-2.85,4.16-3.74,6.91-2.68l-1.12,1.72
				c-2-0.57-3.57-0.02-4.72,1.66c-1.17,1.89-1.04,3.33,0.4,4.32c1.11,0.89,2.56,0.32,4.35-1.73c2.75-3,5.08-3.85,6.99-2.55
				c2.28,1.6,2.42,3.98,0.42,7.13C320.63,206.56,318.65,207.92,316.29,208.24z"/>
			<path d="M330.62,192.39l-10.88-10.36l1.42-1.49l14.79,2.14l-8.83-8.41l1.37-1.44l10.88,10.36l-1.37,1.44l-14.69-2.04l8.73,8.31
				L330.62,192.39z"/>
			<path d="M346.72,177.33c-3.83,2.7-7.33,2.25-10.49-1.33c-2.94-4.06-2.62-7.67,0.97-10.84c3.76-2.64,7.32-2.12,10.67,1.55
				C350.75,170.64,350.37,174.18,346.72,177.33z M345.93,176.33c2.67-2.25,2.75-5.04,0.23-8.35c-2.68-3.06-5.39-3.65-8.12-1.77
				c-2.48,2.34-2.54,5.15-0.19,8.4C340.49,177.71,343.19,178.28,345.93,176.33z"/>
			<path d="M346.59,160.02l-0.69-1.15l10.87-6.55l0.69,1.15l-4.55,2.74l7.06,11.72l-1.76,1.06l-7.06-11.72L346.59,160.02z"/>
			<path d="M372.38,161.39l-5.25-14.08l1.93-0.72l2.3,6.18l8.04-3l-2.3-6.18l1.86-0.69l5.25,14.08l-1.86,0.69l-2.5-6.71l-8.04,3
				l2.5,6.71L372.38,161.39z"/>
			<path d="M386.94,156.21l-3.41-14.63l11.25-2.63l0.31,1.31l-9.25,2.16l1.21,5.18l8.7-2.03l0.31,1.31l-8.7,2.03l1.32,5.66
				l9.25-2.16l0.27,1.17L386.94,156.21z"/>
			<path d="M411.6,152.06l-5.8-5.89l-3.81,0.39l0.66,6.42l-2.04,0.21l-1.53-14.95l7.19-0.74c3.44-0.3,5.33,0.98,5.67,3.84
				c0.31,2.53-0.96,4.07-3.81,4.59l5.95,5.88L411.6,152.06z M401.25,139.36l0.61,5.92l4.58-0.47c2.55-0.17,3.67-1.25,3.37-3.27
				c-0.21-2.02-1.53-2.91-3.98-2.66L401.25,139.36z"/>
			<path d="M415.89,151.85l0.35-15.02l11.55,0.27l-0.03,1.35l-9.5-0.22l-0.12,5.31l8.93,0.21l-0.03,1.35l-8.93-0.21l-0.14,5.81
				l9.5,0.22l-0.03,1.2L415.89,151.85z"/>
			<path d="M443.03,154.39l3.85-14.52l11.17,2.96l-0.35,1.3l-9.18-2.44l-1.36,5.14l8.63,2.29l-0.35,1.3l-8.63-2.29l-1.49,5.62
				l9.18,2.44l-0.31,1.16L443.03,154.39z"/>
			<path d="M473.22,153.41l-2.03-0.84c0.16-2.24-0.88-3.81-3.11-4.73c-3.17-1-5.6,0.32-7.31,3.96c-1.36,3.79-0.44,6.46,2.75,8.03
				c2.1,0.86,3.8,0.77,5.1-0.28l1.32-3.21l-4.65-1.92l0.51-1.25l6.42,2.65l-2.11,5.11c-1.75,1.27-4.11,1.29-7.08,0.07
				c-4.5-2.11-5.91-5.45-4.23-10.02c2.07-4.52,5.32-5.96,9.76-4.33C471.86,147.97,473.41,150.22,473.22,153.41z"/>
			<path d="M488.55,162.13l-1.89-1.11c0.47-2.19-0.34-3.9-2.42-5.12c-3-1.43-5.59-0.46-7.79,2.91c-1.87,3.56-1.34,6.34,1.6,8.34
				c1.96,1.15,3.65,1.29,5.09,0.44l1.76-2.99l-4.34-2.55l0.68-1.16l5.99,3.52l-2.8,4.77c-1.91,1.02-4.25,0.71-7.02-0.92
				c-4.16-2.72-5.09-6.22-2.78-10.51c2.67-4.18,6.1-5.16,10.27-2.93C487.96,156.55,489.19,159,488.55,162.13z"/>
			<path d="M490.39,176.67l9.84-11.26l4.96,4.34c2.5,2.31,2.82,4.6,0.96,6.87c-2.05,2.41-4.43,2.41-7.14-0.02l-3.36-2.94l-3.78,4.32
				L490.39,176.67z M500.84,167.73l-4.34,4.96l3.04,2.66c1.86,1.75,3.53,1.71,5.01-0.14c1.4-1.6,1.17-3.21-0.68-4.83L500.84,167.73z
				"/>
			<path d="M500.09,185.22l15.38-5.31l1.6,1.8l-7.09,14.64l-1.46-1.64l2.06-4.2l-4.61-5.19l-4.41,1.55L500.09,185.22z
				 M514.83,182.08l-7.54,2.72l3.95,4.45L514.83,182.08z"/>
			<path d="M510.88,197.64l12.45-8.41l1.15,1.7l-5.26,13.99l10.1-6.83l1.11,1.64l-12.45,8.41l-1.11-1.64l5.14-13.91l-9.99,6.75
				L510.88,197.64z"/>
			<path d="M534.54,217.34l-0.92-1.84c1.69-1.48,2.06-3.24,1.09-5.29c-1.68-2.75-4.39-3.31-8.11-1.67c-3.34,1.87-4.34,4.43-3,7.67
				c0.97,2.16,2.95,3.39,5.95,3.69l-1.71,0.85c-2.56-0.15-4.49-1.6-5.79-4.32c-1.77-4.19-0.57-7.45,3.6-9.79
				c4.55-2,7.96-1.03,10.23,2.91C537.29,212.59,536.84,215.19,534.54,217.34z"/>
			<path d="M525.62,223.19l16.24,1.07l0.78,2.28l-12.22,10.74l-0.71-2.08l3.52-3.07l-2.24-6.58l-4.66-0.29L525.62,223.19z
				 M540.43,226.01l-8-0.42l1.92,5.64L540.43,226.01z"/>
			<path d="M530.72,238.75l14.74-2.91l0.4,2.02l-8.14,1.61l9.74,6.53l0.52,2.64l-7.44-5.11l-7.22,8.43l-0.48-2.43l6.12-7.06
				l-3.68-2.52l-4.17,0.82L530.72,238.75z"/>
			<path d="M533.48,253.91l14.99-1.03l0.79,11.53l-1.34,0.09l-0.65-9.48l-5.3,0.37l0.61,8.91l-1.34,0.09l-0.62-8.91l-5.8,0.4
				l0.65,9.48l-1.2,0.08L533.48,253.91z"/>
			<path d="M536.85,267.25l1.7,0.09c-2.12,1.64-3.24,3.74-3.37,6.29c-0.08,2.5,0.75,3.82,2.5,3.96c1.6,0.13,2.66-1.19,3.18-3.96
				c0.77-3.94,2.3-5.75,4.6-5.45c2.54,0.27,3.77,2.18,3.69,5.72c-0.17,3.4-1.71,5.33-4.62,5.8l0.1-2.05
				c2.01-0.51,3.09-1.79,3.24-3.81c0.06-2.22-0.78-3.4-2.52-3.53c-1.41-0.21-2.37,1.02-2.88,3.69c-0.86,3.98-2.45,5.89-4.76,5.72
				c-2.78-0.24-4.1-2.22-3.96-5.95C533.95,270.88,534.98,268.71,536.85,267.25z"/>
		</g>
		<g>
			<path class="st11" d="M319.23,334.23c0,34.26,10.25,65.79,28.87,88.78c18.5,22.85,43.55,35.43,70.53,35.43
				c26.99,0,52.04-12.58,70.53-35.43c18.62-23,28.87-54.53,28.87-88.78c0-17.46-2.59-34.4-7.7-50.35
				c-4.95-15.45-12.05-29.35-21.1-41.29c-6.19-8.18-13.1-15.16-20.6-20.88c0,0.01,0,0.02-0.01,0.04c0.89-4.63,1.88-11.62,1.48-18.48
				c-0.46-7.97-3.05-18.05-12.81-20.83c-5.53-1.58-13.57-2.59-20.44,1.59c-0.49,0.3-0.95,0.61-1.37,0.92
				c-0.25-0.56-0.52-1.12-0.84-1.69c-3.13-5.64-8.47-8.57-15.02-8.26c-8.52,0.41-12.65,6.89-14.61,12.26
				c-0.5,1.38-0.89,2.74-1.18,4.02c-0.75-0.49-1.58-0.98-2.48-1.44c-6.44-3.28-13.39-3.47-20.1-0.55c-7,3.04-11.01,9.06-11.61,17.42
				c-0.16,2.19-0.05,4.27,0.15,6.02c-1.68-0.18-3.65-0.33-5.67-0.35c-8.52-0.12-13.63,2.01-15.21,6.33
				c-1.43,3.94,0.12,9.37,4.88,17.11c1.05,1.7,2.12,3.3,3.1,4.68l0,0c-0.97-1.38-2.05-2.98-3.1-4.68c-0.03-0.05-0.06-0.1-0.09-0.15
				c-1.95,2.21-3.85,4.51-5.68,6.93c-9.05,11.94-16.14,25.84-21.1,41.29C321.82,299.84,319.23,316.78,319.23,334.23z M346.29,250.04
				c-0.02,0.25-0.03,0.49-0.03,0.74C346.26,250.54,346.27,250.29,346.29,250.04z M346.31,251.53c-0.02-0.15-0.02-0.31-0.03-0.46
				C346.29,251.22,346.29,251.37,346.31,251.53z M346.42,252.25c-0.02-0.12-0.04-0.24-0.06-0.36
				C346.37,252.01,346.39,252.13,346.42,252.25z M355.42,240.92c-3.47,1.1-7.1,3.09-8.53,6.64
				C348.32,244.01,351.95,242.02,355.42,240.92z M346.57,252.94c-0.02-0.09-0.05-0.17-0.07-0.26
				C346.53,252.77,346.55,252.85,346.57,252.94z M462.33,217.14c-9.01-6.47-18.98-9.87-29.13-9.87c-13.42,0-26.3,5.8-37.25,16.78
				c-9.84,9.87-17.59,23.34-22.5,39.11c-5.17-1.02-10.25-3.05-14.28-5.74c-4.49-3.01-6.01-5.74-5.92-6.76
				c0.21-2.34,6.1-3.93,10.09-4.14c1.32-0.06,2.49-0.86,3.02-2.06c0.54-1.2,0.35-2.61-0.48-3.63c-0.03-0.04-3.24-3.99-6.13-8.68
				c-4.11-6.68-4.61-10.09-4.26-11.06c0.17-0.48,2.1-1.81,8.47-1.74c4.82,0.06,9.49,0.92,9.53,0.93c1.2,0.22,2.43-0.19,3.24-1.1
				c0.81-0.91,1.1-2.17,0.75-3.34c-0.01-0.04-1.18-4.08-0.85-8.64c0.41-5.75,2.84-9.52,7.42-11.51c11.37-4.95,19.36,4.15,19.69,4.53
				c0.93,1.1,2.44,1.52,3.81,1.05c1.37-0.47,2.3-1.74,2.35-3.18c0-0.04,0.17-4.35,1.74-8.57c0.67-1.8,2.71-7.28,8.33-7.55
				c3.86-0.18,6.64,1.29,8.49,4.52c1.57,2.73,1.87,5.68,1.87,5.69c0.14,1.56,1.29,2.83,2.82,3.13c1.54,0.29,3.08-0.47,3.78-1.87
				c0.04-0.08,4.35-8.32,18.45-4.29c4.67,1.33,7.27,6.22,7.75,14.52C463.41,208.39,462.91,213.31,462.33,217.14z M465.8,226.8
				c0.51-0.17,0.97-0.46,1.34-0.82C466.76,226.34,466.31,226.63,465.8,226.8C465.8,226.8,465.8,226.8,465.8,226.8
				C465.8,226.8,465.8,226.8,465.8,226.8z M464.3,226.95c-0.01,0-0.01,0-0.02,0C464.29,226.94,464.3,226.95,464.3,226.95z
				 M464.82,226.97c-0.02,0-0.04,0-0.06,0C464.78,226.97,464.8,226.97,464.82,226.97z M465.32,226.92
				c-0.03,0.01-0.06,0.01-0.09,0.01C465.26,226.93,465.29,226.93,465.32,226.92z M467.66,225.33c-0.07,0.1-0.14,0.2-0.21,0.3
				C467.53,225.53,467.6,225.43,467.66,225.33z M468.41,222.85c-0.02,0.11-0.05,0.23-0.07,0.34
				C468.36,223.07,468.39,222.96,468.41,222.85z M468.27,223.53c-0.05,0.25-0.1,0.48-0.15,0.71
				C468.17,224.01,468.22,223.77,468.27,223.53z M326.22,334.23c0-29.91,8.05-57.37,21.42-78.72c3.85,6.97,15.35,13.54,27.87,15.06
				c0.14,0.02,0.28,0.03,0.42,0.03c1.54,0,2.93-1.02,3.36-2.54c4.52-15.91,12-29.42,21.61-39.06c9.61-9.64,20.78-14.73,32.3-14.73
				c10.23,0,20.33,4.1,29.21,11.85c0.41,0.36,0.89,0.6,1.4,0.74c28.17,21.12,47.25,61.33,47.25,107.38
				c0,32.66-9.7,62.63-27.31,84.39c-17.15,21.18-40.27,32.84-65.11,32.84c-24.84,0-47.96-11.66-65.11-32.84
				C335.92,396.86,326.22,366.89,326.22,334.23z"/>
			<path class="st11" d="M355.83,312.78l-1.22-19.49c6.7,3.04,32.28,3.65,32.28,3.65L355.83,312.78z"/>
			<ellipse class="st11" cx="415.9" cy="282.4" rx="8.36" ry="8.93"/>
			<path class="st11" d="M350.13,268.06c4.37,0,7.91,3.64,7.91,8.14c0,4.49-3.54,8.14-7.91,8.14c-4.37,0-7.91-3.64-7.91-8.14
				C342.22,271.7,345.76,268.06,350.13,268.06z"/>
		</g>
	</g>
</g>
</svg>
